<svg width="50" height="50" viewBox="0 0 50 50" fill="none" xmlns="http://www.w3.org/2000/svg">
<path d="M50.0889 23.6114C50.0889 26.4821 49.6406 29.0958 48.744 31.4546C47.8453 33.8181 46.5732 35.6621 44.9242 36.9866C43.2703 38.3159 41.3434 38.9605 39.1414 38.917C37.6677 38.8884 36.3602 38.5043 35.2197 37.7631C34.0765 37.0213 33.2527 36.0565 32.7496 34.8693L32.2667 34.8577C30.0862 37.4286 27.2974 38.6851 23.8898 38.6185C20.2543 38.5471 17.3706 37.396 15.2525 35.1569C13.126 32.909 12.0597 29.8703 12.0597 26.0449C12.0597 21.683 13.46 18.2221 16.2509 15.6736C19.0266 13.1381 22.6295 11.9747 27.0431 12.1726C28.7899 12.2508 30.7084 12.5044 32.7954 12.9321C34.874 13.3577 36.5799 13.8323 37.9171 14.3539L37.2291 29.1298C37.2291 31.936 37.9864 33.3571 39.499 33.3951C40.769 33.4264 41.7785 32.5126 42.5303 30.6543C43.28 28.7987 43.6548 26.3577 43.6548 23.3285C43.6548 20.0988 42.9938 17.2185 41.6704 14.6823C40.3429 12.14 38.47 10.1552 36.0457 8.72661C33.6102 7.29192 30.8144 6.49298 27.6529 6.33388C23.5309 6.12649 19.9238 6.79624 16.8419 8.35128C13.7413 9.91584 11.3523 12.2827 9.68381 15.4513C8.00982 18.6307 7.17075 22.3528 7.17075 26.6099C7.17075 32.3419 8.72626 36.7724 11.8241 39.8873C14.9039 42.9845 19.3356 44.566 25.0857 44.6462C27.2461 44.6762 29.6102 44.4701 32.1759 44.0295C34.7285 43.5916 37.2291 42.9375 39.6777 42.0692V47.8685C35.4096 49.6616 30.6322 50.5421 25.331 50.4986C17.5154 50.434 11.3419 48.3139 6.86935 44.1132C2.35804 39.8771 0.0888672 34.0248 0.0888672 26.5821C0.0888672 21.4185 1.24874 16.7765 3.56156 12.6683C5.86399 8.57839 9.12605 5.45742 13.3297 3.30403C17.4995 1.16831 22.2595 0.257178 27.5919 0.554995C32.0443 0.803856 35.9902 1.93393 39.4394 3.93638C42.8656 5.92591 45.4937 8.62462 47.3368 12.0325C49.1729 15.4289 50.0889 19.2855 50.0889 23.6114ZM19.2947 26.3937C19.2947 30.7263 21.0678 32.9369 24.5952 33.0246C26.432 33.0701 27.8254 32.4589 28.7795 31.1907C29.7315 29.9254 30.3086 27.8434 30.5103 24.9441L30.9045 18.2248C29.8735 17.961 28.7081 17.8032 27.4083 17.7516C24.8599 17.6509 22.8692 18.3703 21.4419 19.9131C20.0104 21.46 19.2933 23.6216 19.2933 26.3937H19.2947Z" fill="#5923AF"/>
</svg>
