<svg width="79" height="77" viewBox="0 0 79 77" fill="none" xmlns="http://www.w3.org/2000/svg">
<path fill-rule="evenodd" clip-rule="evenodd" d="M39.923 0C18.3391 0 0.890625 17.6458 0.890625 39.4761C0.890625 56.9263 12.0705 71.6974 27.5799 76.9254C29.5189 77.3184 30.2292 76.076 30.2292 75.0309C30.2292 74.1157 30.1653 70.9788 30.1653 67.7103C19.3074 70.0636 17.0464 63.0045 17.0464 63.0045C15.3015 58.4294 12.716 57.2535 12.716 57.2535C9.16225 54.8352 12.9749 54.8352 12.9749 54.8352C16.9169 55.0967 18.9855 58.8874 18.9855 58.8874C22.4745 64.8998 28.0968 63.201 30.3586 62.155C30.6814 59.606 31.7161 57.8414 32.8146 56.8613C24.1547 55.9461 15.0434 52.5477 15.0434 37.3843C15.0434 33.0707 16.5934 29.5415 19.0494 26.7968C18.6619 25.8167 17.3044 21.7637 19.4377 16.3392C19.4377 16.3392 22.7334 15.2933 30.1645 20.3914C33.3459 19.5275 36.6273 19.088 39.923 19.084C43.2187 19.084 46.5783 19.542 49.6807 20.3914C57.1126 15.2933 60.4083 16.3392 60.4083 16.3392C62.5415 21.7637 61.1833 25.8167 60.7958 26.7968C63.3165 29.5415 64.8026 33.0707 64.8026 37.3843C64.8026 52.5477 55.6912 55.8803 46.9666 56.8613C48.3888 58.1029 49.616 60.4554 49.616 64.1811C49.616 69.4749 49.552 73.7235 49.552 75.0301C49.552 76.076 50.2631 77.3184 52.2014 76.9262C67.7108 71.6966 78.8906 56.9263 78.8906 39.4761C78.9545 17.6458 61.4422 0 39.923 0Z" fill="#5923AF"/>
</svg>
