<svg width="50" height="60" viewBox="0 0 50 59" fill="none" xmlns="http://www.w3.org/2000/svg">
<path d="M6.03149 20.063C4.39018 20.063 2.98906 19.4625 1.7881 18.2749C0.600481 17.0873 0 15.6728 0 14.0315C0 12.3902 0.600481 10.9891 1.7881 9.7881C2.97571 8.60048 4.39018 8 6.03149 8C7.67281 8 9.07393 8.60048 10.2749 9.7881C11.4625 10.9757 12.063 12.3902 12.063 14.0315C12.063 15.6728 11.4625 17.0739 10.2749 18.2749C9.08727 19.4625 7.67281 20.063 6.03149 20.063ZM11.1556 57.9867H0.787297V24.64H11.1556V57.9867ZM49.9733 57.9867H39.605V41.707C39.605 39.0248 39.3782 37.1033 38.9378 35.9023C38.1238 33.9007 36.5226 32.8866 34.1473 32.8866C31.7721 32.8866 30.0907 33.7806 29.13 35.5687C28.3827 36.9031 28.0091 38.878 28.0091 41.4801V57.9867H17.7475V24.64H27.6755V29.217H27.7822C28.5295 27.7358 29.7171 26.5081 31.3451 25.534C33.1332 24.3464 35.2148 23.7459 37.5901 23.7459C42.4206 23.7459 45.81 25.2671 47.7449 28.3229C49.226 30.7782 49.9733 34.5679 49.9733 39.7054V58V57.9867Z" fill="#5923AF"/>
</svg>
