<svg width="60" height="50" viewBox="0 0 60 50" fill="none" xmlns="http://www.w3.org/2000/svg">
<path d="M59.4544 5.12765L50.4049 47.4308C50.0503 48.9416 49.4491 49.8975 48.6166 50.2829C47.7686 50.6837 46.7357 50.5296 45.487 49.8204L31.7816 39.7071L25.1371 46.0896C24.69 46.5367 24.3354 46.845 24.0733 47.0146C23.6262 47.2766 23.0558 47.4154 22.3467 47.4154L23.4104 33.448L48.817 10.431C49.1716 10.1689 49.2795 9.92221 49.1561 9.70638C49.0174 9.49055 48.7553 9.39805 48.3545 9.4443C47.9536 9.49055 47.5374 9.64472 47.0903 9.9068L15.7021 29.7325L2.1355 25.4776C0.624669 25.0305 -0.0844949 24.3676 0.00800477 23.4888C0.100504 22.6101 1.0255 21.8084 2.79841 21.0993L55.6003 0.749334C56.9261 0.302253 57.9898 0.456418 58.7915 1.21183C59.5932 1.96724 59.809 3.27766 59.4544 5.14307V5.12765Z" fill="#5923AF"/>
</svg>
