<svg width="32" height="32" viewBox="0 0 32 32" fill="none" xmlns="http://www.w3.org/2000/svg">
<path d="M23.9866 2.128C22.6416 1.98532 21.2898 1.91588 19.9373 1.92C15.4533 1.92 12.6666 4.776 12.6666 9.37333V12.4947H8.89994C8.72313 12.4947 8.55356 12.5649 8.42854 12.6899C8.30351 12.815 8.23328 12.9845 8.23328 13.1613V18.2947C8.23328 18.4715 8.30351 18.641 8.42854 18.7661C8.55356 18.8911 8.72313 18.9613 8.89994 18.9613H12.6666V29.2547C12.6666 29.4315 12.7368 29.601 12.8619 29.7261C12.9869 29.8511 13.1565 29.9213 13.3333 29.9213H18.6373C18.8141 29.9213 18.9837 29.8511 19.1087 29.7261C19.2337 29.601 19.3039 29.4315 19.3039 29.2547V18.9613H23.0586C23.2205 18.9614 23.3768 18.9026 23.4985 18.7959C23.6202 18.6892 23.6989 18.5418 23.7199 18.3813L24.3826 13.248C24.3949 13.1539 24.3871 13.0583 24.3595 12.9675C24.3319 12.8767 24.2852 12.7928 24.2226 12.7215C24.16 12.6502 24.0829 12.5931 23.9964 12.554C23.91 12.5148 23.8162 12.4946 23.7213 12.4947H19.3039V9.88267C19.3039 8.58933 19.5639 8.04933 21.1813 8.04933H23.8999C24.0768 8.04933 24.2463 7.97909 24.3713 7.85407C24.4964 7.72905 24.5666 7.55948 24.5666 7.38267V2.78933C24.5667 2.62748 24.5079 2.47112 24.4012 2.34943C24.2944 2.22775 24.1471 2.14904 23.9866 2.128ZM23.2333 6.71467L21.1799 6.716C18.3039 6.716 17.9706 8.524 17.9706 9.88267V13.1627C17.9706 13.3392 18.0407 13.5086 18.1654 13.6336C18.2901 13.7586 18.4594 13.829 18.6359 13.8293H22.9639L22.4719 17.6293H18.6373C18.4605 17.6293 18.2909 17.6996 18.1659 17.8246C18.0408 17.9496 17.9706 18.1192 17.9706 18.296V28.5867H13.9999V18.296C13.9999 18.1192 13.9297 17.9496 13.8047 17.8246C13.6797 17.6996 13.5101 17.6293 13.3333 17.6293H9.56794V13.8293H13.3333C13.5101 13.8293 13.6797 13.7591 13.8047 13.6341C13.9297 13.509 13.9999 13.3395 13.9999 13.1627V9.37333C13.9999 5.54133 16.2199 3.25333 19.9373 3.25333C21.2826 3.25333 22.4973 3.32667 23.2333 3.39067V6.71467Z" fill="#011C44"/>
</svg>
