<svg width="32" height="32" viewBox="0 0 32 32" fill="none" xmlns="http://www.w3.org/2000/svg">
<path d="M16 9.42857C14.7003 9.42857 13.4298 9.81398 12.3491 10.5361C11.2684 11.2581 10.4262 12.2845 9.92879 13.4852C9.43142 14.686 9.30128 16.0073 9.55484 17.282C9.8084 18.5568 10.4343 19.7277 11.3533 20.6467C12.2723 21.5657 13.4432 22.1916 14.718 22.4452C15.9927 22.6987 17.314 22.5686 18.5148 22.0712C19.7155 21.5738 20.7419 20.7316 21.4639 19.6509C22.186 18.5702 22.5714 17.2997 22.5714 16C22.5714 14.2571 21.8791 12.5857 20.6467 11.3533C19.4143 10.1209 17.7429 9.42857 16 9.42857ZM16 20.8571C15.0393 20.8571 14.1003 20.5723 13.3015 20.0386C12.5028 19.5049 11.8802 18.7463 11.5126 17.8587C11.145 16.9712 11.0488 15.9946 11.2362 15.0524C11.4236 14.1102 11.8862 13.2448 12.5655 12.5655C13.2448 11.8862 14.1102 11.4236 15.0524 11.2362C15.9946 11.0488 16.9712 11.145 17.8587 11.5126C18.7463 11.8802 19.5049 12.5028 20.0386 13.3015C20.5723 14.1003 20.8571 15.0393 20.8571 16C20.8534 17.287 20.3404 18.5203 19.4304 19.4304C18.5203 20.3404 17.287 20.8534 16 20.8571ZM22.2857 2H9.71429C7.66833 2 5.70617 2.81275 4.25946 4.25946C2.81275 5.70617 2 7.66833 2 9.71429V22.2857C2 24.3317 2.81275 26.2938 4.25946 27.7405C5.70617 29.1872 7.66833 30 9.71429 30H22.2857C24.3317 30 26.2938 29.1872 27.7405 27.7405C29.1872 26.2938 30 24.3317 30 22.2857V9.71429C30 7.66833 29.1872 5.70617 27.7405 4.25946C26.2938 2.81275 24.3317 2 22.2857 2ZM28.2857 22.2857C28.2857 23.877 27.6536 25.4031 26.5284 26.5284C25.4031 27.6536 23.877 28.2857 22.2857 28.2857H9.71429C8.12299 28.2857 6.59686 27.6536 5.47164 26.5284C4.34643 25.4031 3.71429 23.877 3.71429 22.2857V9.71429C3.71429 8.12299 4.34643 6.59686 5.47164 5.47164C6.59686 4.34643 8.12299 3.71429 9.71429 3.71429H22.2857C23.877 3.71429 25.4031 4.34643 26.5284 5.47164C27.6536 6.59686 28.2857 8.12299 28.2857 9.71429V22.2857ZM24.8571 8.57143C24.8571 8.85397 24.7734 9.13017 24.6164 9.3651C24.4594 9.60003 24.2363 9.78313 23.9753 9.89126C23.7142 9.99938 23.427 10.0277 23.1499 9.97255C22.8728 9.91743 22.6182 9.78137 22.4184 9.58158C22.2186 9.38179 22.0826 9.12725 22.0275 8.85013C21.9723 8.57301 22.0006 8.28578 22.1087 8.02474C22.2169 7.7637 22.4 7.54059 22.6349 7.38362C22.8698 7.22664 23.146 7.14286 23.4286 7.14286C23.8075 7.14286 24.1708 7.29337 24.4387 7.56128C24.7066 7.82919 24.8571 8.19255 24.8571 8.57143Z" fill="#011C44"/>
</svg>
