<!-- Generated by IcoMoon.io -->
<svg version="1.1" xmlns="http://www.w3.org/2000/svg" width="32" height="32" viewBox="0 0 32 32">
<path d="M15.881 8.959c-1.456 0-2.879 0.432-4.089 1.24s-2.154 1.958-2.711 3.303c-0.557 1.345-0.703 2.825-0.419 4.252s0.985 2.739 2.014 3.768c1.029 1.029 2.341 1.73 3.768 2.014s2.908 0.138 4.252-0.419c1.345-0.557 2.494-1.5 3.303-2.711s1.24-2.633 1.24-4.089c0-1.952-0.775-3.824-2.156-5.204s-3.252-2.156-5.204-2.156zM15.881 21.759c-1.076 0-2.128-0.319-3.022-0.917s-1.592-1.447-2.004-2.441-0.519-2.088-0.31-3.143c0.21-1.055 0.728-2.025 1.489-2.785s1.73-1.279 2.785-1.489c1.055-0.21 2.149-0.102 3.143 0.31s1.844 1.109 2.441 2.004c0.598 0.895 0.917 1.947 0.917 3.022-0.004 1.442-0.579 2.823-1.598 3.842s-2.401 1.594-3.842 1.598zM22.921 0.639h-14.080c-2.291 0-4.489 0.91-6.109 2.531s-2.531 3.818-2.531 6.109v14.080c0 2.291 0.91 4.489 2.531 6.109s3.818 2.531 6.109 2.531h14.080c2.292 0 4.489-0.91 6.109-2.531s2.531-3.818 2.531-6.109v-14.080c0-2.291-0.91-4.489-2.531-6.109s-3.818-2.531-6.109-2.531zM29.641 23.359c0 1.782-0.708 3.492-1.968 4.752s-2.969 1.968-4.752 1.968h-14.080c-1.782 0-3.492-0.708-4.752-1.968s-1.968-2.969-1.968-4.752v-14.080c0-1.782 0.708-3.492 1.968-4.752s2.97-1.968 4.752-1.968h14.080c1.782 0 3.492 0.708 4.752 1.968s1.968 2.97 1.968 4.752v14.080zM25.801 7.999c0 0.316-0.094 0.626-0.27 0.889s-0.426 0.468-0.718 0.589-0.614 0.153-0.924 0.091c-0.31-0.062-0.595-0.214-0.819-0.438s-0.376-0.509-0.438-0.819c-0.062-0.31-0.030-0.632 0.091-0.924s0.326-0.542 0.589-0.718c0.263-0.176 0.572-0.27 0.889-0.27 0.424 0 0.831 0.169 1.131 0.469s0.469 0.707 0.469 1.131z"></path>
</svg>
