<svg width="32" height="32" viewBox="0 0 32 32" fill="none" xmlns="http://www.w3.org/2000/svg">
<path d="M8.90039 1.92871C9.77033 1.79759 10.5043 2.13141 11.1113 2.61719C11.7166 3.10157 12.2056 3.7448 12.5879 4.24707L12.7393 4.44629H12.7383C13.3606 5.25032 13.8127 5.96236 14.0947 6.58984C14.3764 7.21648 14.4924 7.7657 14.4336 8.24121C14.3828 8.65183 14.1721 9.0115 13.8965 9.33691C13.6215 9.66162 13.2743 9.96124 12.9404 10.25L12.9336 10.2549C12.926 10.2604 12.9178 10.2626 12.9111 10.2656C12.9065 10.2723 12.9015 10.2819 12.8936 10.29L12.8906 10.292L12.1543 10.9893L12.0557 11.1094L11.9756 11.2285C11.8543 11.4363 11.6977 11.8296 11.6289 12.2744C11.56 12.7198 11.5814 13.2023 11.7959 13.5986C12.3351 14.5921 13.3705 16.1745 14.3135 17.4443H14.3125C15.2997 18.6708 16.568 20.0721 17.3828 20.8359C17.7124 21.1446 18.174 21.2845 18.623 21.3271C19.0712 21.3697 19.4926 21.3137 19.7266 21.2461L19.8613 21.1973C19.9078 21.178 19.9555 21.1557 20.0039 21.1309L20.8389 20.5967C21.2296 20.3195 21.6173 20.0395 22.0039 19.8438C22.3921 19.6472 22.7902 19.5292 23.2012 19.5859C23.6703 19.6439 24.1684 19.8925 24.7002 20.3213C25.2323 20.7504 25.805 21.3658 26.4258 22.1699H26.4268L26.583 22.3691L26.8906 22.7676C27.2101 23.19 27.5498 23.6817 27.7871 24.2158C28.0847 24.8856 28.2254 25.6317 27.958 26.3994L27.8994 26.5527C27.6386 27.1816 27.2629 27.7119 26.7246 28.2158L26.7178 28.2227L26.7168 28.2217C26.7131 28.2245 26.7086 28.2254 26.7051 28.2275C26.704 28.2288 26.7033 28.231 26.7021 28.2324L26.6816 28.2529L25.9463 28.8193C25.9229 28.8491 25.8873 28.8953 25.8398 28.9287L25.8389 28.9297L25.498 29.1641H25.4971C24.9426 29.5336 23.8401 30.0996 22.3027 30.0996C21.1338 30.0996 19.7187 29.7728 18.1055 28.791C15.7165 27.3379 13.1175 24.9486 10.5645 21.8662L10.5518 21.877L10.4893 21.7979L9.18262 20.1299L9.12402 20.0557L9.14941 20.0322C6.80471 16.7748 5.14173 13.6417 4.33105 10.9482C3.69607 8.8391 3.84196 7.20696 4.25977 6.00098C4.67713 4.79646 5.36301 4.02315 5.79785 3.62598C5.89471 3.53667 5.99302 3.45035 6.09082 3.36621L6.0918 3.36523C6.09978 3.35847 6.10744 3.35381 6.11328 3.35059C6.11559 3.3477 6.11932 3.34374 6.12305 3.33984C6.12724 3.33548 6.13328 3.33052 6.14062 3.3252L6.98047 2.68652C6.98534 2.68283 6.99081 2.6811 6.99512 2.67871L6.99609 2.67773C7.00076 2.67302 7.00732 2.66611 7.0166 2.66016C7.6307 2.26532 8.23003 2.0308 8.90039 1.92871ZM9.07227 3.10059C8.56658 3.1792 8.12682 3.34982 7.64941 3.6582L6.84668 4.2666L6.84473 4.26953C6.75508 4.34773 6.66682 4.42443 6.57812 4.50684H6.57715C6.14244 4.9035 5.60004 5.56205 5.29492 6.55078C4.99003 7.53881 4.91939 8.86421 5.44141 10.5996C6.24823 13.2794 7.96024 16.449 10.3994 19.7637L11.0996 20.6709L11.5859 21.2617C14.0186 24.1723 16.4695 26.4139 18.7031 27.7725C20.2446 28.7103 21.5387 28.9716 22.5664 28.9199C23.5918 28.8682 24.3596 28.5041 24.8496 28.1787L25.9473 27.333C26.3567 26.9473 26.6388 26.5522 26.8311 26.0889C27.0305 25.6113 26.9207 25.0904 26.6641 24.5684C26.4075 24.0466 26.0139 23.5427 25.6748 23.1094L25.5146 22.9043V22.9033C24.1305 21.1127 23.3637 20.7996 23.0586 20.7617L23.0537 20.7607C22.9779 20.748 22.8828 20.7598 22.7686 20.7969C22.6551 20.8337 22.5294 20.8931 22.3955 20.9688C22.1269 21.1206 21.8379 21.3299 21.5615 21.5264L21.4873 21.5781L21.4854 21.5762L21.4746 21.5869L20.582 22.1582L20.5811 22.1562C20.5724 22.1619 20.5646 22.1655 20.5576 22.168C20.5512 22.1733 20.5441 22.1819 20.5332 22.1875H20.5322C20.3685 22.2695 20.208 22.3364 20.0508 22.3828H20.0498C19.7553 22.4681 19.3697 22.5273 18.9512 22.5273C18.1714 22.5273 17.2579 22.3246 16.5967 21.7061C15.7435 20.9073 14.4307 19.4551 13.4023 18.1768L13.4004 18.1738C12.4164 16.8509 11.3446 15.2119 10.7803 14.1719C10.446 13.5564 10.3868 12.8551 10.4639 12.2188C10.5409 11.5827 10.7548 11.0022 10.9775 10.6201H10.9785C11.0653 10.4719 11.171 10.3296 11.293 10.1895H11.2939C11.3017 10.1805 11.3092 10.1737 11.3145 10.1699L11.3154 10.168C11.3186 10.1636 11.3231 10.1585 11.3281 10.1533L11.3311 10.1504L12.0986 9.42285L12.1045 9.41699L12.1113 9.41309L12.1191 9.40527L12.1904 9.34375C12.4438 9.12552 12.7091 8.89622 12.917 8.6748C13.0204 8.56458 13.1073 8.45827 13.1709 8.3584C13.235 8.25769 13.2717 8.16864 13.2812 8.09277C13.3193 7.78722 13.2089 6.96351 11.8271 5.17773H11.8262L11.6699 4.97461V4.97363C11.335 4.53337 10.9475 4.02133 10.5068 3.63965C10.1209 3.30544 9.70667 3.0821 9.26367 3.08496L9.07227 3.10059ZM12.0967 9.43164C12.096 9.43268 12.096 9.43403 12.0957 9.43457C12.0959 9.43416 12.0962 9.43193 12.0977 9.42969L12.0967 9.43164Z" fill="#011C44" stroke="black" stroke-width="0.2"/>
</svg>
