<svg aria-hidden="true" style="position: absolute; width: 0; height: 0; overflow: hidden;" version="1.1" xmlns="http://www.w3.org/2000/svg" xmlns:xlink="http://www.w3.org/1999/xlink">
<defs>
<symbol id="icon-facebook-logo" viewBox="0 0 32 32">
<path fill="#011c44" style="fill: var(--color1, #011c44)" d="M23.987 2.128c-1.345-0.143-2.697-0.212-4.049-0.208-4.484 0-7.271 2.856-7.271 7.453v3.121h-3.767c-0.177 0-0.346 0.070-0.471 0.195s-0.195 0.295-0.195 0.471v5.133c0 0.177 0.070 0.346 0.195 0.471s0.295 0.195 0.471 0.195h3.767v10.293c0 0.177 0.070 0.346 0.195 0.471s0.295 0.195 0.471 0.195h5.304c0.177 0 0.346-0.070 0.471-0.195s0.195-0.295 0.195-0.471v-10.293h3.755c0.162 0 0.318-0.059 0.44-0.165s0.2-0.254 0.221-0.415l0.663-5.133c0.012-0.094 0.005-0.19-0.023-0.28s-0.074-0.175-0.137-0.246c-0.063-0.071-0.14-0.128-0.226-0.168s-0.18-0.059-0.275-0.059h-4.417v-2.612c0-1.293 0.26-1.833 1.877-1.833h2.719c0.177 0 0.346-0.070 0.471-0.195s0.195-0.295 0.195-0.471v-4.593c0-0.162-0.059-0.318-0.165-0.44s-0.254-0.2-0.415-0.221zM23.233 6.715l-2.053 0.001c-2.876 0-3.209 1.808-3.209 3.167v3.28c0 0.177 0.070 0.346 0.195 0.471s0.294 0.195 0.471 0.196h4.328l-0.492 3.8h-3.835c-0.177 0-0.346 0.070-0.471 0.195s-0.195 0.295-0.195 0.471v10.291h-3.971v-10.291c0-0.177-0.070-0.346-0.195-0.471s-0.295-0.195-0.471-0.195h-3.765v-3.8h3.765c0.177 0 0.346-0.070 0.471-0.195s0.195-0.295 0.195-0.471v-3.789c0-3.832 2.22-6.12 5.937-6.12 1.345 0 2.56 0.073 3.296 0.137v3.324z"></path>
</symbol>
<symbol id="icon-instagram-logo" viewBox="0 0 32 32">
<path fill="#011c44" style="fill: var(--color1, #011c44)" d="M16 9.429c-1.3 0-2.57 0.385-3.651 1.108s-1.923 1.748-2.42 2.949c-0.497 1.201-0.627 2.522-0.374 3.797s0.879 2.446 1.798 3.365 2.090 1.545 3.365 1.799c1.275 0.253 2.596 0.123 3.797-0.374s2.227-1.34 2.949-2.42c0.722-1.081 1.108-2.351 1.108-3.651 0-1.743-0.692-3.414-1.925-4.647s-2.904-1.925-4.647-1.925zM16 20.857c-0.961 0-1.9-0.285-2.698-0.819s-1.421-1.292-1.789-2.18c-0.368-0.887-0.464-1.864-0.276-2.806s0.65-1.808 1.329-2.487c0.679-0.679 1.545-1.142 2.487-1.329s1.919-0.091 2.806 0.276c0.888 0.368 1.646 0.99 2.18 1.789s0.819 1.738 0.819 2.698c-0.004 1.287-0.517 2.52-1.427 3.43s-2.143 1.423-3.43 1.427zM22.286 2h-12.571c-2.046 0-4.008 0.813-5.455 2.259s-2.259 3.409-2.259 5.455v12.571c0 2.046 0.813 4.008 2.259 5.455s3.409 2.259 5.455 2.259h12.571c2.046 0 4.008-0.813 5.455-2.259s2.259-3.409 2.259-5.455v-12.571c0-2.046-0.813-4.008-2.259-5.455s-3.409-2.259-5.455-2.259zM28.286 22.286c0 1.591-0.632 3.117-1.757 4.243s-2.651 1.757-4.243 1.757h-12.571c-1.591 0-3.117-0.632-4.243-1.757s-1.757-2.651-1.757-4.243v-12.571c0-1.591 0.632-3.117 1.757-4.243s2.651-1.757 4.243-1.757h12.571c1.591 0 3.117 0.632 4.243 1.757s1.757 2.651 1.757 4.243v12.571zM24.857 8.571c0 0.283-0.084 0.559-0.241 0.794s-0.38 0.418-0.641 0.526c-0.261 0.108-0.548 0.136-0.825 0.081s-0.532-0.191-0.732-0.391c-0.2-0.2-0.336-0.454-0.391-0.731s-0.027-0.564 0.081-0.825c0.108-0.261 0.291-0.484 0.526-0.641s0.511-0.241 0.794-0.241c0.379 0 0.742 0.151 1.010 0.418s0.418 0.631 0.418 1.010z"></path>
</symbol>
<symbol id="icon-arrow1-logo" viewBox="0 0 36 32">
<path d="M1.062 17.414c-0.781-0.781-0.781-2.047 0-2.828l12.728-12.728c0.781-0.781 2.047-0.781 2.828 0s0.781 2.047 0 2.828l-11.314 11.314 11.314 11.314c0.781 0.781 0.781 2.047 0 2.828s-2.047 0.781-2.828 0l-12.728-12.728zM36 18h-33.524v-4h33.524v4z"></path>
</symbol>
<symbol id="icon-atom-logo" viewBox="0 0 29 32">
<path fill="#2b7fff" style="fill: var(--color2, #2b7fff)" d="M14.612 0.072c-1.145 0-2.215 0.522-3.127 1.376s-1.692 2.044-2.343 3.485c-0.136 0.302-0.267 0.616-0.391 0.939-0.336-0.053-0.673-0.097-1.011-0.131-0.393-0.039-0.777-0.064-1.15-0.072-1.12-0.027-2.143 0.087-3.040 0.359-1.196 0.363-2.182 1.028-2.755 2.020s-0.656 2.179-0.372 3.396c0.284 1.217 0.924 2.488 1.847 3.772 0.194 0.269 0.401 0.539 0.619 0.81-0.214 0.264-0.42 0.533-0.618 0.809-0.923 1.284-1.563 2.555-1.847 3.772s-0.201 2.404 0.372 3.396c0.573 0.992 1.559 1.658 2.755 2.020s2.616 0.444 4.19 0.287c0.33-0.033 0.667-0.077 1.010-0.131 0.122 0.317 0.252 0.631 0.392 0.941 0.651 1.441 1.431 2.631 2.343 3.485s1.982 1.376 3.127 1.376c1.145 0 2.215-0.522 3.127-1.376s1.692-2.044 2.343-3.485c0.14-0.31 0.27-0.624 0.392-0.941 0.342 0.054 0.679 0.098 1.009 0.131 1.573 0.157 2.994 0.076 4.19-0.287s2.182-1.028 2.755-2.020c0.573-0.992 0.656-2.179 0.372-3.396s-0.924-2.488-1.847-3.772c-0.198-0.275-0.404-0.545-0.618-0.809 0.214-0.264 0.42-0.534 0.619-0.809 0.923-1.284 1.563-2.555 1.847-3.772s0.201-2.404-0.372-3.396c-0.573-0.992-1.559-1.658-2.755-2.020-0.897-0.272-1.92-0.385-3.039-0.359-0.373 0.009-0.757 0.033-1.15 0.072-0.33 0.033-0.667 0.077-1.010 0.131-0.122-0.317-0.252-0.63-0.391-0.939-0.651-1.441-1.431-2.631-2.343-3.485s-1.982-1.376-3.127-1.376v0zM14.612 1.346c0.764 0 1.513 0.336 2.256 1.032s1.452 1.749 2.053 3.080c0.098 0.217 0.191 0.436 0.279 0.657-1.46 0.325-3.007 0.823-4.588 1.488-1.58-0.665-3.127-1.163-4.587-1.488 0.090-0.226 0.183-0.446 0.279-0.658 0.601-1.331 1.31-2.384 2.053-3.080s1.492-1.031 2.256-1.031v0zM6.186 6.941c0.123-0.001 0.248 0 0.375 0.002 0.338 0.008 0.69 0.029 1.053 0.066 0.232 0.023 0.47 0.053 0.711 0.088-0.449 1.427-0.791 3.015-1.005 4.717-1.367 1.036-2.572 2.127-3.583 3.229-0.148-0.187-0.292-0.378-0.431-0.571-0.852-1.185-1.409-2.326-1.641-3.318s-0.147-1.808 0.235-2.469c0.382-0.662 1.047-1.143 2.021-1.438 0.639-0.194 1.405-0.298 2.266-0.306v0zM23.038 6.941c0.861 0.008 1.626 0.112 2.266 0.306 0.974 0.295 1.639 0.776 2.021 1.438s0.466 1.478 0.235 2.469c-0.231 0.991-0.789 2.132-1.641 3.318-0.14 0.194-0.283 0.384-0.431 0.571-1.011-1.102-2.216-2.192-3.582-3.229-0.214-1.702-0.556-3.29-1.005-4.718 0.241-0.035 0.478-0.065 0.71-0.088 0.35-0.035 0.701-0.057 1.053-0.066 0.125-0.003 0.25-0.004 0.375-0.003v0zM19.634 7.326c0.339 1.053 0.619 2.214 0.829 3.457-0.676-0.457-1.369-0.89-2.076-1.298s-1.427-0.791-2.161-1.148c1.181-0.44 2.327-0.778 3.408-1.010v0zM9.59 7.326c1.081 0.233 2.226 0.57 3.407 1.010-0.734 0.357-1.454 0.74-2.161 1.148s-1.399 0.84-2.075 1.297c0.209-1.243 0.49-2.404 0.829-3.456zM14.612 8.994c1.037 0.457 2.089 0.989 3.138 1.595s2.037 1.252 2.951 1.921c0.122 1.127 0.188 2.304 0.188 3.516s-0.066 2.388-0.188 3.514c-0.915 0.669-1.902 1.315-2.951 1.921s-2.102 1.138-3.139 1.595c-1.037-0.457-2.090-0.989-3.139-1.595s-2.036-1.251-2.95-1.92c-0.122-1.127-0.188-2.304-0.188-3.515s0.066-2.39 0.188-3.517c0.915-0.669 1.901-1.315 2.95-1.921s2.102-1.137 3.138-1.594v0zM14.698 10.911l-3.648 2.251 3.648 2.251 3.648-2.251-3.648-2.251zM7.146 13.579c-0.057 0.814-0.086 1.63-0.086 2.447 0 0.832 0.029 1.648 0.086 2.445-0.972-0.802-1.837-1.626-2.579-2.446 0.742-0.82 1.607-1.643 2.579-2.446zM22.078 13.58c0.971 0.802 1.836 1.626 2.578 2.445-0.742 0.82-1.607 1.643-2.578 2.445 0.057-0.814 0.086-1.629 0.086-2.445 0-0.832-0.029-1.649-0.086-2.446v0zM10.228 14.152v4.445l3.831 2.364v-4.445l-3.831-2.365zM19.164 14.154l-3.83 2.364v4.443l3.83-2.364v-4.443zM3.736 17.007c1.011 1.103 2.216 2.193 3.583 3.229 0.214 1.701 0.556 3.29 1.005 4.716-0.241 0.035-0.478 0.064-0.71 0.088-1.453 0.145-2.72 0.057-3.693-0.238s-1.639-0.776-2.021-1.438c-0.382-0.662-0.466-1.478-0.235-2.469s0.789-2.132 1.641-3.318c0.139-0.193 0.283-0.384 0.43-0.57zM25.488 17.007c0.15 0.191 0.295 0.381 0.43 0.57 0.852 1.185 1.409 2.326 1.641 3.318s0.147 1.808-0.235 2.469c-0.382 0.662-1.047 1.143-2.021 1.438s-2.241 0.383-3.693 0.238c-0.237-0.024-0.473-0.053-0.709-0.088 0.449-1.427 0.791-3.016 1.005-4.718 1.366-1.036 2.571-2.126 3.582-3.228v0zM20.463 21.267c-0.209 1.243-0.49 2.404-0.829 3.457-1.081-0.233-2.227-0.571-3.408-1.011 0.734-0.357 1.455-0.741 2.161-1.149s1.399-0.841 2.075-1.297v0zM8.761 21.268c0.676 0.456 1.368 0.889 2.074 1.297s1.428 0.791 2.161 1.149c-1.181 0.44-2.326 0.778-3.407 1.010-0.339-1.052-0.619-2.213-0.829-3.456zM14.65 21.326l0.046 0.029 0.046-0.029h-0.092zM14.612 24.447c1.581 0.665 3.128 1.163 4.588 1.488-0.088 0.222-0.181 0.442-0.279 0.659-0.601 1.33-1.31 2.384-2.053 3.080s-1.492 1.032-2.256 1.032c-0.764 0-1.513-0.336-2.256-1.032s-1.452-1.749-2.053-3.080c-0.098-0.218-0.191-0.438-0.279-0.659 1.46-0.325 3.007-0.823 4.588-1.488v0z"></path>
</symbol>
<symbol id="icon-bottle-logo" viewBox="0 0 31 32">
<path fill="#2b7fff" style="fill: var(--color2, #2b7fff)" d="M8.56 12.129h-8.681c-0.267 0-0.483 0.207-0.483 0.462v2.776c0 0.256 0.216 0.463 0.483 0.463h0.482v10.642c0 0.256 0.216 0.463 0.483 0.463h6.751c0.266 0 0.483-0.207 0.483-0.463v-10.642h0.482c0.266 0 0.482-0.207 0.482-0.463v-2.775c0-0.256-0.216-0.464-0.482-0.464zM3.256 20.92v-0.925h2.893v-0.925h-2.893v-0.925h3.858v6.015h-3.857v-2.313h0.965v-0.925h-0.965zM7.113 17.219h-4.34c-0.266 0-0.482 0.207-0.482 0.463v6.94c0 0.256 0.216 0.463 0.482 0.463h4.34v0.925h-5.787v-10.18h5.787v1.388zM8.078 14.905h-7.717v-1.851h7.717v1.851zM14.951 12.216v-3.383c0-0.264-0.216-0.477-0.483-0.477h-0.482v-2.381h0.965v-0.953h-5.305v0.953h3.376v2.381h-0.483c-0.001 0-0.002 0-0.003 0-0.264 0-0.478 0.213-0.479 0.477v3.383c-1.099 0.221-1.929 1.183-1.929 2.333v11.909c0 0.264 0.216 0.477 0.483 0.477h5.787c0.001 0 0.002 0 0.003 0 0.264 0 0.478-0.213 0.479-0.477v-11.909c0-1.149-0.829-2.112-1.928-2.333zM13.021 9.31h0.965v2.858h-0.965v-2.858zM12.539 13.12h1.929c0.798 0 1.447 0.641 1.447 1.429v0.477h-4.822v-0.477c0-0.788 0.649-1.429 1.447-1.429zM15.915 24.076h-4.823v-0.951h1.929v-0.953h-1.929v-6.193h4.822v8.099zM11.092 25.982v-0.953h4.822v0.953h-4.822zM27.278 11.537h-8.138c-0.25 0.004-0.452 0.208-0.452 0.459 0 0.003 0 0.006 0 0.008v0 14.465c0 0.258 0.202 0.466 0.452 0.466h8.138c0.249 0 0.452-0.209 0.452-0.466v-14.466c0-0.002 0-0.005 0-0.008 0-0.251-0.201-0.455-0.452-0.459v0zM26.826 26.002h-7.234v-13.532h7.234v13.531z"></path>
<path fill="#2b7fff" style="fill: var(--color2, #2b7fff)" d="M6.631 21.013h-1.206v0.592h1.206v-0.592zM15.071 22.198h-1.206v1.184h1.206v-1.184zM13.564 21.013c1.163 0 2.109-0.93 2.109-2.073s-0.946-2.073-2.109-2.073c-1.164 0-2.11 0.93-2.11 2.073s0.946 2.073 2.109 2.073zM13.564 17.904c0.581 0 1.055 0.465 1.055 1.036s-0.473 1.036-1.055 1.036c-0.581 0-1.055-0.465-1.055-1.036s0.473-1.036 1.055-1.036zM22.079 16.274h2.26c0.873 0 1.583-0.663 1.583-1.48s-0.71-1.48-1.583-1.48h-2.26c-0.872 0-1.582 0.664-1.582 1.48s0.71 1.48 1.582 1.48zM25.017 14.794c0 0.349-0.304 0.634-0.679 0.634h-0.678v-1.269h0.678c0.374 0 0.679 0.285 0.679 0.635zM22.079 14.16h0.678v1.269h-0.678c-0.374 0-0.679-0.285-0.679-0.634s0.304-0.635 0.679-0.635zM22.079 21.013h2.26c0.873 0 1.583-0.797 1.583-1.776s-0.71-1.777-1.583-1.777h-2.26c-0.872 0-1.582 0.797-1.582 1.776s0.71 1.776 1.582 1.776zM25.017 19.237c0 0.419-0.304 0.761-0.679 0.761h-0.678v-1.522h0.678c0.374 0 0.679 0.342 0.679 0.761zM22.079 18.474h0.678v1.523h-0.678c-0.374 0-0.679-0.342-0.679-0.761s0.304-0.761 0.679-0.761zM22.079 25.159h2.26c0.873 0 1.583-0.797 1.583-1.776s-0.71-1.777-1.583-1.777h-2.26c-0.872 0-1.582 0.797-1.582 1.776s0.71 1.777 1.582 1.777zM25.017 23.382c0 0.419-0.304 0.761-0.679 0.761h-0.678v-1.523h0.678c0.374 0 0.679 0.342 0.679 0.761zM22.079 22.621h0.678v1.523h-0.678c-0.374 0-0.679-0.342-0.679-0.761s0.304-0.761 0.679-0.761z"></path>
</symbol>
<symbol id="icon-close-small" viewBox="0 0 32 32">
<path stroke-linejoin="miter" stroke-linecap="round" stroke-miterlimit="4" stroke-width="2" d="M8 8l8 8 8-8"></path>
<path stroke-linejoin="miter" stroke-linecap="round" stroke-miterlimit="4" stroke-width="2" d="M8 24l8-8 8 8"></path>
</symbol>
<symbol id="icon-close-white" viewBox="0 0 32 32">
<path fill="none" stroke="#fff" style="stroke: var(--color3, #fff)" stroke-linejoin="miter" stroke-linecap="round" stroke-miterlimit="4" stroke-width="2" d="M8 8l8 8 8-8"></path>
<path fill="none" stroke="#fff" style="stroke: var(--color3, #fff)" stroke-linejoin="miter" stroke-linecap="round" stroke-miterlimit="4" stroke-width="2" d="M8 24l8-8 8 8"></path>
</symbol>
<symbol id="icon-Close" viewBox="0 0 32 32">
<path stroke-linejoin="miter" stroke-linecap="round" stroke-miterlimit="4" stroke-width="3.5556" d="M1.778 1.778l14.222 14.222 14.222-14.222"></path>
<path stroke-linejoin="miter" stroke-linecap="round" stroke-miterlimit="4" stroke-width="3.5556" d="M1.778 30.222l14.222-14.222 14.222 14.222"></path>
</symbol>
<symbol id="icon-crown-logo" viewBox="0 0 39 32">
<path fill="#2b7fff" style="fill: var(--color2, #2b7fff)" d="M37.805 7.546c-0.337-0.306-0.745-0.502-1.178-0.566s-0.873 0.004-1.272 0.2l-8.417 4.107c-0.037 0.022-0.078 0.036-0.12 0.041s-0.085 0-0.125-0.014c-0.040-0.014-0.078-0.036-0.11-0.066s-0.059-0.066-0.078-0.108l-4.917-9.717c-0.199-0.402-0.493-0.737-0.851-0.97s-0.766-0.357-1.182-0.357c-0.416 0-0.824 0.123-1.182 0.357s-0.652 0.569-0.851 0.97l-4.917 9.717c-0.019 0.041-0.046 0.078-0.078 0.108s-0.070 0.052-0.11 0.066c-0.040 0.014-0.083 0.018-0.125 0.014s-0.083-0.018-0.12-0.041l-8.417-4.107c-0.398-0.198-0.838-0.27-1.271-0.207s-0.841 0.259-1.178 0.564c-0.337 0.306-0.589 0.709-0.728 1.164s-0.159 0.944-0.057 1.412l4.25 19.855c0.072 0.336 0.205 0.652 0.391 0.929s0.422 0.51 0.692 0.684c0.356 0.24 0.766 0.367 1.183 0.367 0.214-0.002 0.426-0.033 0.633-0.092 7.77-2.365 15.977-2.371 23.75-0.018 0.303 0.096 0.621 0.124 0.934 0.081s0.615-0.155 0.888-0.33 0.51-0.409 0.698-0.687c0.188-0.279 0.323-0.596 0.396-0.934l4.233-19.855c0.106-0.464 0.090-0.951-0.046-1.405s-0.386-0.857-0.721-1.161zM36.639 9.599l-4.25 19.855c-0.023 0.096-0.076 0.181-0.15 0.238-0.083 0.044-0.177 0.057-0.267 0.037-8.126-2.469-16.708-2.469-24.833 0-0.044 0.014-0.090 0.017-0.135 0.011s-0.089-0.023-0.128-0.049c-0.039-0.026-0.073-0.060-0.099-0.101s-0.045-0.087-0.055-0.136l-4.25-19.855c-0.010-0.055-0.008-0.111 0.004-0.165s0.035-0.105 0.067-0.148c0.032-0.044 0.072-0.079 0.117-0.104s0.095-0.039 0.146-0.040l0.133 0.037 8.433 4.125c0.532 0.263 1.134 0.297 1.687 0.093s1.016-0.63 1.296-1.193l4.917-9.717c0.026-0.058 0.067-0.107 0.117-0.141s0.108-0.052 0.167-0.052c0.059 0 0.117 0.018 0.167 0.052s0.090 0.083 0.117 0.141l4.917 9.717c0.28 0.563 0.743 0.989 1.296 1.193s1.156 0.171 1.687-0.093l8.433-4.125c0.057-0.028 0.12-0.037 0.182-0.028s0.12 0.039 0.168 0.083c0.049 0.043 0.086 0.1 0.106 0.165s0.024 0.135 0.011 0.202zM25.889 23.533c-0.028 0.271-0.146 0.521-0.33 0.703s-0.422 0.284-0.67 0.287h-0.1c-3.48-0.385-6.986-0.385-10.467 0-0.263 0.031-0.526-0.054-0.732-0.236s-0.338-0.447-0.368-0.736c-0.023-0.291 0.058-0.581 0.226-0.807s0.41-0.371 0.674-0.403c3.612-0.422 7.255-0.422 10.867 0 0.261 0.032 0.5 0.175 0.668 0.397s0.251 0.507 0.232 0.795z"></path>
</symbol>
<symbol id="icon-main-logo" viewBox="0 0 63 32">
<path fill="#2b7fff" style="fill: var(--color2, #2b7fff)" d="M1.332 0.624h5.004c1.18 0 2.087 0.089 2.721 0.266 0.647 0.165 1.104 0.438 1.37 0.818 0.266 0.368 0.4 0.888 0.4 1.56v1.522c0 0.343-0.139 0.666-0.419 0.97-0.266 0.304-0.584 0.514-0.951 0.628v0.095c0.482 0.051 0.92 0.26 1.313 0.628 0.406 0.355 0.609 0.755 0.609 1.199v1.903c0 1.002-0.4 1.712-1.199 2.131s-2.036 0.628-3.71 0.628h-5.137v-12.349zM6.336 5.648c0.469 0 0.818-0.038 1.046-0.114s0.381-0.197 0.457-0.362c0.089-0.178 0.133-0.431 0.133-0.761v-0.609c0-0.292-0.038-0.507-0.114-0.647-0.076-0.152-0.235-0.26-0.476-0.323-0.228-0.063-0.596-0.095-1.104-0.095h-1.979v2.911h2.036zM6.412 10.861c0.723 0 1.237-0.082 1.541-0.247s0.457-0.431 0.457-0.799v-0.989c0-0.457-0.12-0.78-0.361-0.97-0.228-0.19-0.641-0.285-1.237-0.285h-2.512v3.292h2.112zM17.919 13.163c-3.26 0-4.89-0.996-4.89-2.987v-3.311c0-1.154 0.368-1.992 1.104-2.512 0.748-0.52 1.896-0.78 3.444-0.78 1.459 0 2.524 0.254 3.197 0.761 0.685 0.495 1.027 1.338 1.027 2.531v2.245h-5.974v0.837c0 0.533 0.19 0.913 0.571 1.142s1.066 0.342 2.055 0.342c0.913 0 1.941-0.133 3.082-0.4v1.77c-1.129 0.241-2.334 0.361-3.615 0.361zM19.156 7.531v-1.332c0-0.304-0.127-0.533-0.381-0.685-0.241-0.152-0.653-0.228-1.237-0.228-0.672 0-1.123 0.076-1.351 0.228-0.241 0.165-0.361 0.393-0.361 0.685v1.332h3.33zM26.53 13.163c-0.863 0-1.509-0.076-1.941-0.228-0.419-0.165-0.717-0.45-0.894-0.856-0.165-0.419-0.247-1.040-0.247-1.865 0-0.736 0.089-1.313 0.266-1.731 0.19-0.419 0.488-0.717 0.894-0.894 0.419-0.19 0.989-0.285 1.712-0.285h3.12v-0.628c0-0.393-0.057-0.685-0.171-0.875-0.101-0.19-0.298-0.323-0.59-0.4-0.279-0.076-0.704-0.114-1.275-0.114-0.786 0-1.865 0.076-3.235 0.228v-1.75c1.002-0.127 2.175-0.19 3.52-0.19 1.18 0 2.087 0.089 2.721 0.266 0.647 0.178 1.11 0.482 1.389 0.913s0.419 1.059 0.419 1.884v6.336h-2.721v-0.837c-0.216 0.368-0.507 0.628-0.875 0.78-0.368 0.165-1.066 0.247-2.093 0.247zM27.615 11.432c0.558 0 0.958-0.019 1.199-0.057 0.178-0.025 0.298-0.063 0.361-0.114 0.076-0.051 0.14-0.133 0.19-0.247 0.051-0.089 0.076-0.222 0.076-0.4v-1.789h-1.903c-0.431 0-0.736 0.032-0.913 0.095-0.178 0.051-0.298 0.165-0.361 0.342-0.063 0.165-0.095 0.463-0.095 0.894 0 0.419 0.032 0.71 0.095 0.875s0.184 0.273 0.361 0.323c0.19 0.051 0.52 0.076 0.989 0.076zM37.86 13.163c-1.18 0-2.011-0.209-2.493-0.628-0.469-0.431-0.704-1.104-0.704-2.017v-6.755h2.778v6.374c0 0.355 0.032 0.622 0.095 0.799 0.076 0.178 0.216 0.304 0.419 0.381 0.216 0.076 0.539 0.114 0.97 0.114 0.545 0 0.945-0.032 1.199-0.095 0.254-0.076 0.425-0.203 0.514-0.381s0.133-0.45 0.133-0.818v-6.374h2.778v9.209h-2.74v-1.123c-0.203 0.875-1.186 1.313-2.949 1.313zM50.584 13.163c-0.469 0-0.863-0.019-1.18-0.057s-0.634-0.114-0.951-0.228c-0.355-0.114-0.647-0.273-0.875-0.476-0.216-0.203-0.393-0.482-0.533-0.837-0.152-0.368-0.228-0.793-0.228-1.275v-4.814h-1.865v-1.712h1.865v-2.664h2.778v2.664h2.531v1.712h-2.531v4.338c0 0.444 0.038 0.78 0.114 1.008 0.076 0.216 0.222 0.374 0.438 0.476 0.216 0.089 0.545 0.133 0.989 0.133 0.178 0 0.507-0.032 0.989-0.095v1.731c-0.596 0.063-1.11 0.095-1.541 0.095zM56.335 12.897l-3.672-9.133h3.025l2.074 6.507 1.884-6.507h2.873l-5.042 13.167h-2.816l1.674-4.034zM0.761 29.328l6.431-8.429h-6.241v-2.112h9.894v1.789l-6.431 8.429h6.545v2.131h-10.198v-1.808zM17.282 31.325c-0.571 0-1.040-0.019-1.408-0.057s-0.761-0.114-1.18-0.228c-0.457-0.127-0.824-0.304-1.104-0.533-0.279-0.241-0.514-0.577-0.704-1.008-0.19-0.419-0.285-0.926-0.285-1.522v-2.721c0-0.609 0.095-1.142 0.285-1.598s0.438-0.812 0.742-1.066c0.266-0.216 0.615-0.393 1.046-0.533 0.444-0.152 0.875-0.247 1.294-0.285 0.482-0.025 0.92-0.038 1.313-0.038 0.584 0 1.046 0.019 1.389 0.057 0.355 0.025 0.742 0.101 1.161 0.228 0.457 0.14 0.824 0.33 1.104 0.571 0.292 0.241 0.539 0.584 0.742 1.027 0.19 0.457 0.285 1.002 0.285 1.636v2.721c0 0.571-0.095 1.072-0.285 1.503-0.178 0.431-0.412 0.767-0.704 1.008-0.254 0.216-0.603 0.393-1.046 0.533-0.431 0.127-0.856 0.209-1.275 0.247-0.381 0.038-0.837 0.057-1.37 0.057zM17.282 29.594c0.52 0 0.913-0.038 1.18-0.114 0.266-0.089 0.45-0.222 0.552-0.4 0.114-0.178 0.171-0.438 0.171-0.78v-3.482c0-0.507-0.133-0.863-0.4-1.066s-0.767-0.304-1.503-0.304c-0.736 0-1.237 0.101-1.503 0.304s-0.4 0.558-0.4 1.066v3.482c0 0.343 0.051 0.603 0.152 0.78 0.114 0.178 0.304 0.311 0.571 0.4 0.266 0.076 0.66 0.114 1.18 0.114zM24.128 21.926h2.74v1.123c0.216-0.875 1.199-1.313 2.949-1.313 1.18 0 2.004 0.216 2.474 0.647 0.482 0.419 0.723 1.085 0.723 1.998v6.755h-2.778v-6.393c0-0.355-0.038-0.622-0.114-0.799-0.063-0.178-0.203-0.304-0.419-0.381-0.203-0.076-0.52-0.114-0.951-0.114-0.545 0-0.945 0.038-1.199 0.114-0.254 0.063-0.425 0.184-0.514 0.361s-0.133 0.45-0.133 0.818v6.393h-2.778v-9.209zM40.068 31.325c-3.26 0-4.89-0.996-4.89-2.987v-3.311c0-1.154 0.368-1.992 1.104-2.512 0.748-0.52 1.896-0.78 3.444-0.78 1.459 0 2.524 0.254 3.197 0.761 0.685 0.495 1.027 1.338 1.027 2.531v2.245h-5.974v0.837c0 0.533 0.19 0.913 0.571 1.142s1.066 0.343 2.055 0.343c0.913 0 1.941-0.133 3.082-0.4v1.77c-1.129 0.241-2.334 0.361-3.615 0.361zM41.304 25.693v-1.332c0-0.304-0.127-0.533-0.381-0.685-0.241-0.152-0.653-0.228-1.237-0.228-0.672 0-1.123 0.076-1.351 0.228-0.241 0.165-0.361 0.393-0.361 0.685v1.332h3.33z"></path>
</symbol>
<symbol id="icon-menu" viewBox="0 0 32 32">
<path d="M29.333 24.007c0 0.733-0.595 1.327-1.327 1.327h-10.68c-0.733 0-1.327-0.594-1.327-1.327s0.594-1.327 1.327-1.327h10.68c0.733 0 1.327 0.593 1.327 1.327zM29.333 16c0 0.733-0.595 1.327-1.327 1.327h-24.013c-0.733 0-1.327-0.594-1.327-1.327s0.594-1.327 1.327-1.327h24.013c0.733 0 1.327 0.595 1.327 1.327zM28.007 9.32c0.733 0 1.327-0.594 1.327-1.327s-0.594-1.327-1.327-1.327h-16.013c-0.733 0-1.327 0.594-1.327 1.327s0.594 1.327 1.327 1.327h16.013z"></path>
</symbol>
<symbol id="icon-phone-logo" viewBox="0 0 32 32">
<path fill="#011c44" style="fill: var(--color1, #011c44)" d="M8.9 1.929c0.87-0.131 1.604 0.203 2.211 0.688 0.605 0.484 1.094 1.128 1.477 1.63l0.151 0.199h-0.001c0.622 0.804 1.074 1.516 1.356 2.144s0.398 1.176 0.339 1.651c-0.051 0.411-0.261 0.77-0.537 1.096s-0.622 0.624-0.956 0.913l-0.007 0.005c-0.008 0.005-0.016 0.008-0.023 0.011-0.005 0.007-0.010 0.016-0.018 0.024l-0.003 0.002-0.736 0.697-0.099 0.12-0.080 0.119c-0.121 0.208-0.278 0.601-0.347 1.046s-0.047 0.928 0.167 1.324c0.539 0.993 1.575 2.576 2.518 3.846h-0.001c0.987 1.227 2.255 2.628 3.070 3.392 0.33 0.309 0.791 0.449 1.24 0.491s0.87-0.013 1.104-0.081l0.135-0.049c0.047-0.019 0.094-0.042 0.143-0.066l0.835-0.534c0.391-0.277 0.778-0.557 1.165-0.753 0.388-0.197 0.786-0.315 1.197-0.258 0.469 0.058 0.967 0.307 1.499 0.735s1.105 1.044 1.726 1.849h0.001l0.156 0.199 0.308 0.398c0.32 0.422 0.659 0.914 0.896 1.448 0.298 0.67 0.438 1.416 0.171 2.184l-0.059 0.153c-0.261 0.629-0.637 1.159-1.175 1.663l-0.007 0.007-0.001-0.001c-0.004 0.003-0.008 0.004-0.012 0.006-0.001 0.001-0.002 0.003-0.003 0.005l-0.020 0.020-0.735 0.566c-0.023 0.030-0.059 0.076-0.107 0.109l-0.001 0.001-0.341 0.234h-0.001c-0.555 0.369-1.657 0.936-3.194 0.936-1.169 0-2.584-0.327-4.197-1.309-2.389-1.453-4.988-3.842-7.541-6.925l-0.013 0.011-0.063-0.079-1.365-1.742 0.025-0.023c-2.345-3.257-4.008-6.39-4.818-9.084-0.635-2.109-0.489-3.741-0.071-4.947 0.417-1.205 1.103-1.978 1.538-2.375 0.097-0.089 0.195-0.176 0.293-0.26l0.001-0.001c0.008-0.007 0.016-0.011 0.021-0.015 0.002-0.003 0.006-0.007 0.010-0.011s0.010-0.009 0.018-0.015l0.84-0.639c0.005-0.004 0.010-0.005 0.015-0.008l0.001-0.001c0.005-0.005 0.011-0.012 0.021-0.018 0.614-0.395 1.213-0.629 1.884-0.731zM9.072 3.101c-0.506 0.079-0.945 0.249-1.423 0.558l-0.803 0.608-0.002 0.003c-0.090 0.078-0.178 0.155-0.267 0.237h-0.001c-0.435 0.397-0.977 1.055-1.282 2.044s-0.376 2.313 0.146 4.049c0.807 2.68 2.519 5.849 4.958 9.164l0.7 0.907 0.486 0.591c2.433 2.911 4.884 5.152 7.117 6.511 1.541 0.938 2.836 1.199 3.863 1.147 1.025-0.052 1.793-0.416 2.283-0.741l1.098-0.846c0.409-0.386 0.692-0.781 0.884-1.244 0.199-0.478 0.090-0.998-0.167-1.52s-0.65-1.026-0.989-1.459l-0.16-0.205v-0.001c-1.384-1.791-2.151-2.104-2.456-2.142l-0.005-0.001c-0.076-0.013-0.171-0.001-0.285 0.036s-0.239 0.096-0.373 0.172c-0.269 0.152-0.558 0.361-0.834 0.558l-0.074 0.052-0.002-0.002-0.011 0.011-0.893 0.571-0.001-0.002c-0.009 0.006-0.017 0.009-0.023 0.012-0.006 0.005-0.014 0.014-0.024 0.020h-0.001c-0.164 0.082-0.324 0.149-0.481 0.195h-0.001c-0.294 0.085-0.68 0.145-1.099 0.145-0.78 0-1.693-0.203-2.354-0.821-0.853-0.799-2.166-2.251-3.194-3.529l-0.002-0.003c-0.984-1.323-2.056-2.962-2.62-4.002-0.334-0.616-0.393-1.317-0.316-1.953s0.291-1.217 0.514-1.599h0.001c0.087-0.148 0.193-0.29 0.315-0.431h0.001c0.008-0.009 0.015-0.016 0.021-0.020l0.001-0.002c0.003-0.004 0.008-0.009 0.013-0.015l0.003-0.003 0.773-0.733 0.007-0.004 0.008-0.008 0.071-0.062c0.253-0.218 0.519-0.448 0.727-0.669 0.103-0.11 0.19-0.217 0.254-0.316s0.101-0.19 0.11-0.266c0.038-0.306-0.072-1.129-1.454-2.915h-0.001l-0.156-0.203v-0.001c-0.335-0.44-0.722-0.952-1.163-1.334-0.386-0.334-0.8-0.558-1.243-0.555l-0.191 0.016zM12.097 9.432c-0.001 0.001-0.001 0.002-0.001 0.003s0.001-0.003 0.002-0.005l-0.001 0.002z"></path>
</symbol>
</defs>
</svg>
