<svg width="24" height="18" viewBox="0 0 24 24" fill="none" xmlns="http://www.w3.org/2000/svg">
<path d="M20.4184 17L3.58164 17C2.91694 17.0009 2.26556 16.8223 1.7029 16.485C1.14023 16.1476 0.689285 15.6652 0.402257 15.0936C0.0662574 14.4154 -0.0631556 13.6609 0.0287643 12.916C0.120684 12.1711 0.43024 11.4658 0.922156 10.8804L9.34052 1.15777C9.67089 0.794356 10.0793 0.502893 10.5382 0.303137C10.997 0.103381 11.4956 0 12 0C12.5044 0 13.003 0.103381 13.4618 0.303137C13.9207 0.502893 14.3291 0.794356 14.6595 1.15777L23.0778 10.8804C23.5698 11.4658 23.8793 12.1711 23.9712 12.916C24.0632 13.6609 23.9337 14.4154 23.5977 15.0936C23.3107 15.6652 22.8598 16.1476 22.2971 16.485C21.7344 16.8223 21.0831 17.0009 20.4184 17Z" fill="white"/>
</svg>
