<svg width="24" height="18" viewBox="0 0 24 24" fill="none" xmlns="http://www.w3.org/2000/svg">
<path d="M3.58164 3L20.4184 3C21.0831 2.99909 21.7344 3.17765 22.2971 3.51504C22.8598 3.85242 23.3107 4.33482 23.5977 4.90641C23.9337 5.5846 24.0632 6.33913 23.9712 7.08403C23.8793 7.82893 23.5698 8.53424 23.0778 9.11956L14.6595 18.8422C14.3291 19.2056 13.9207 19.4971 13.4618 19.6969C13.003 19.8966 12.5044 20 12 20C11.4956 20 10.997 19.8966 10.5382 19.6969C10.0793 19.4971 9.67089 19.2056 9.34052 18.8422L0.922156 9.11956C0.43024 8.53423 0.120685 7.82893 0.0287639 7.08403C-0.0631549 6.33913 0.0662606 5.58459 0.402261 4.90641C0.689289 4.33482 1.14023 3.85242 1.7029 3.51503C2.26557 3.17765 2.91695 2.99908 3.58164 3Z" fill="white"/>
</svg>
