<svg width="42" height="24" viewBox="0 0 42 24" fill="none" xmlns="http://www.w3.org/2000/svg">
<g clip-path="url(#clip0_3388_3090)">
<path d="M15.9349 10.6088C15.9349 10.6088 19.5902 10.3454 19.5902 6.18651C19.5902 2.02767 16.6 0 12.8088 0H0.333252V23.2406H12.8088C12.8088 23.2406 20.4251 23.4758 20.4251 16.3813C20.4251 16.3813 20.7601 10.6135 15.9349 10.6135V10.6088ZM5.83316 4.12591H12.8136C12.8136 4.12591 14.5078 4.12591 14.5078 6.54406C14.5078 8.96221 13.5126 9.31034 12.3816 9.31034H5.83801V4.1212L5.83316 4.12591ZM12.4884 19.1053H5.83316V12.8952H12.8136C12.8136 12.8952 15.3427 12.8623 15.3427 16.0849C15.3427 18.7759 13.4932 19.077 12.4932 19.1053H12.4884Z" fill="#F1F2F2"/>
<path d="M37.2058 0.191406H26.7039V3.23688H37.2058V0.191406Z" fill="#F1F2F2"/>
<path d="M32.1822 5.03125C22.3965 5.03125 22.4068 14.5383 22.4068 14.5383C22.4068 14.5383 21.7369 23.9953 32.1873 23.9953C32.1873 23.9953 40.896 24.4812 40.896 17.4185H36.418C36.418 17.4185 36.5674 20.0783 32.3368 20.0783C32.3368 20.0783 27.8588 20.3688 27.8588 15.7756H41.0454C41.0454 15.7756 42.4883 5.03626 32.1822 5.03626V5.03125ZM27.8021 12.4696C27.8021 12.4696 28.3483 8.65276 32.2801 8.65276C36.2118 8.65276 36.1603 12.4696 36.1603 12.4696H27.7969H27.8021Z" fill="#F1F2F2"/>
</g>
<defs>
<clipPath id="clip0_3388_3090">
<rect width="41" height="24" fill="white" transform="translate(0.333252)"/>
</clipPath>
</defs>
</svg>
