<svg width="24" height="24" viewBox="0 0 24 24" fill="none" xmlns="http://www.w3.org/2000/svg">
<g clip-path="url(#clip0_3388_3084)">
<path d="M24.6667 11.0934C24.6667 12.4714 24.4515 13.726 24.0212 14.8582C23.5898 15.9926 22.9792 16.8778 22.1876 17.5135C21.3938 18.1516 20.4689 18.461 19.4119 18.4401C18.7045 18.4264 18.077 18.242 17.5295 17.8863C16.9808 17.5302 16.5853 17.0671 16.3439 16.4972L16.1121 16.4917C15.0655 17.7257 13.7268 18.3288 12.0912 18.2968C10.3461 18.2626 8.96195 17.71 7.94525 16.6353C6.92457 15.5563 6.41273 14.0977 6.41273 12.2615C6.41273 10.1678 7.08487 8.50659 8.4245 7.28334C9.75682 6.06628 11.4862 5.50786 13.6048 5.60283C14.4432 5.64037 15.3641 5.7621 16.3658 5.96739C17.3636 6.1717 18.1824 6.39951 18.8243 6.64984L18.494 13.7423C18.494 15.0892 18.8575 15.7714 19.5835 15.7896C20.1932 15.8046 20.6777 15.366 21.0386 14.474C21.3984 13.5833 21.5784 12.4117 21.5784 10.9577C21.5784 9.40738 21.2611 8.02486 20.6259 6.80748C19.9886 5.58717 19.0897 4.63448 17.926 3.94877C16.757 3.26012 15.415 2.87663 13.8974 2.80025C11.9189 2.70071 10.1875 3.02219 8.70819 3.76861C7.2199 4.5196 6.07316 5.65571 5.27231 7.17661C4.4688 8.70274 4.06605 10.4893 4.06605 12.5327C4.06605 15.2841 4.81269 17.4107 6.29965 18.9059C7.77797 20.3925 9.90515 21.1516 12.6652 21.1902C13.7022 21.2045 14.837 21.1056 16.0685 20.8941C17.2937 20.6839 18.494 20.37 19.6694 19.9532V22.7368C17.6207 23.5975 15.3275 24.0201 12.783 23.9993C9.03146 23.9683 6.06818 22.9506 3.92137 20.9343C1.75595 18.901 0.666748 16.0919 0.666748 12.5194C0.666748 10.0409 1.22349 7.81271 2.33364 5.84076C3.4388 3.87762 5.00459 2.37956 7.02235 1.34593C9.02381 0.320787 11.3086 -0.116554 13.8682 0.0263975C16.0053 0.145851 17.8994 0.688285 19.5549 1.64946C21.1996 2.60443 22.461 3.89981 23.3457 5.5356C24.227 7.16584 24.6667 9.01704 24.6667 11.0934ZM9.88553 12.429C9.88553 14.5086 10.7366 15.5697 12.4298 15.6118C13.3114 15.6336 13.9802 15.3402 14.4382 14.7315C14.8952 14.1241 15.1722 13.1248 15.269 11.7331L15.4582 8.50789C14.9634 8.38126 14.404 8.30554 13.78 8.28074C12.5568 8.23243 11.6013 8.57774 10.9162 9.31828C10.2291 10.0608 9.88486 11.0983 9.88486 12.429H9.88553Z" fill="white"/>
</g>
<defs>
<clipPath id="clip0_3388_3084">
<rect width="24" height="24" fill="white" transform="translate(0.666748)"/>
</clipPath>
</defs>
</svg>
