<svg width="24" height="24" viewBox="0 0 24 24" fill="none" xmlns="http://www.w3.org/2000/svg">
<g clip-path="url(#clip0_3796_50367)">
<path d="M21.6 7.2C21.6 4.55074 19.4493 2.4 16.8 2.4H7.2C4.55074 2.4 2.4 4.55074 2.4 7.2V16.8C2.4 19.4493 4.55074 21.6 7.2 21.6H16.8C19.4493 21.6 21.6 19.4493 21.6 16.8V7.2ZM24 16.8C24 20.7747 20.7747 24 16.8 24H7.2C3.22526 24 0 20.7747 0 16.8V7.2C0 3.22526 3.22526 0 7.2 0H16.8C20.7747 0 24 3.22526 24 7.2V16.8Z" fill="white"/>
<path d="M15.6 12C15.6 10.0107 13.9893 8.4 12 8.4C10.0107 8.4 8.4 10.0107 8.4 12C8.4 13.9893 10.0107 15.6 12 15.6C13.9893 15.6 15.6 13.9893 15.6 12ZM18 12C18 15.3147 15.3147 18 12 18C8.68526 18 6 15.3147 6 12C6 8.68526 8.68526 6 12 6C15.3147 6 18 8.68526 18 12Z" fill="white"/>
</g>
<defs>
<clipPath id="clip0_3796_50367">
<rect width="24" height="24" fill="white"/>
</clipPath>
</defs>
</svg>
