<svg width="24" height="24" viewBox="0 0 24 24" fill="none" xmlns="http://www.w3.org/2000/svg">
<g clip-path="url(#clip0_3388_3096)">
<path d="M2.89666 5.79023C2.10841 5.79023 1.43551 5.502 0.858745 4.93195C0.288385 4.36189 0 3.68295 0 2.89512C0 2.10729 0.288385 1.43475 0.858745 0.858286C1.42911 0.28823 2.10841 0 2.89666 0C3.68491 0 4.35781 0.28823 4.93458 0.858286C5.50494 1.42834 5.79332 2.10729 5.79332 2.89512C5.79332 3.68295 5.50494 4.35549 4.93458 4.93195C4.36422 5.502 3.68491 5.79023 2.89666 5.79023ZM5.35754 23.9936H0.378104V7.98719H5.35754V23.9936ZM24 23.9936H19.0206V16.1793C19.0206 14.8919 18.9116 13.9696 18.7001 13.3931C18.3092 12.4323 17.5402 11.9456 16.3995 11.9456C15.2587 11.9456 14.4513 12.3747 13.9899 13.233C13.631 13.8735 13.4515 14.8215 13.4515 16.0705V23.9936H8.52337V7.98719H13.2913V10.1841H13.3426C13.7015 9.47318 14.2718 8.88391 15.0537 8.41634C15.9124 7.84628 16.9122 7.55805 18.0529 7.55805C20.3728 7.55805 22.0005 8.28823 22.9298 9.75501C23.6411 10.9335 24 12.7526 24 15.2186V24V23.9936Z" fill="white"/>
</g>
<defs>
<clipPath id="clip0_3388_3096">
<rect width="24" height="24" fill="white"/>
</clipPath>
</defs>
</svg>
