<svg width="29" height="24" viewBox="0 0 29 24" fill="none" xmlns="http://www.w3.org/2000/svg">
<g clip-path="url(#clip0_3388_3083)">
<path d="M28.9198 2.22127L24.5179 22.5268C24.3455 23.252 24.053 23.7108 23.6481 23.8958C23.2356 24.0882 22.7332 24.0142 22.1258 23.6738L15.4592 18.8194L12.2272 21.883C12.0097 22.0976 11.8372 22.2456 11.7097 22.327C11.4923 22.4528 11.2148 22.5194 10.8699 22.5194L11.3873 15.815L23.7455 4.76686C23.918 4.64106 23.9705 4.52266 23.9105 4.41906C23.843 4.31546 23.7155 4.27106 23.5206 4.29326C23.3256 4.31546 23.1231 4.38946 22.9057 4.51526L7.63782 14.0316L1.03875 11.9892C0.303851 11.7746 -0.0411 11.4564 0.00389368 11.0346C0.0488873 10.6128 0.498824 10.228 1.3612 9.88764L27.0451 0.11968C27.69 -0.0949187 28.2074 -0.0209195 28.5974 0.341679C28.9873 0.704278 29.0923 1.33328 28.9198 2.22867V2.22127Z" fill="white"/>
</g>
<defs>
<clipPath id="clip0_3388_3083">
<rect width="29" height="24" fill="currentColor"/>
</clipPath>
</defs>
</svg>
