<!-- Generated by IcoMoon.io -->
<svg version="1.1" xmlns="http://www.w3.org/2000/svg" width="32" height="32" viewBox="0 0 32 32">
<path fill="#011c44" d="M16 9.429c-1.3 0-2.57 0.385-3.651 1.108s-1.923 1.748-2.42 2.949c-0.497 1.201-0.627 2.522-0.374 3.797s0.879 2.446 1.798 3.365 2.090 1.545 3.365 1.799c1.275 0.253 2.596 0.123 3.797-0.374s2.227-1.34 2.949-2.42c0.722-1.081 1.108-2.351 1.108-3.651 0-1.743-0.692-3.414-1.925-4.647s-2.904-1.925-4.647-1.925zM16 20.857c-0.961 0-1.9-0.285-2.698-0.819s-1.421-1.292-1.789-2.18c-0.368-0.887-0.464-1.864-0.276-2.806s0.65-1.808 1.329-2.487c0.679-0.679 1.545-1.142 2.487-1.329s1.919-0.091 2.806 0.276c0.888 0.368 1.646 0.99 2.18 1.789s0.819 1.738 0.819 2.698c-0.004 1.287-0.517 2.52-1.427 3.43s-2.143 1.423-3.43 1.427zM22.286 2h-12.571c-2.046 0-4.008 0.813-5.455 2.259s-2.259 3.409-2.259 5.455v12.571c0 2.046 0.813 4.008 2.259 5.455s3.409 2.259 5.455 2.259h12.571c2.046 0 4.008-0.813 5.455-2.259s2.259-3.409 2.259-5.455v-12.571c0-2.046-0.813-4.008-2.259-5.455s-3.409-2.259-5.455-2.259zM28.286 22.286c0 1.591-0.632 3.117-1.757 4.243s-2.651 1.757-4.243 1.757h-12.571c-1.591 0-3.117-0.632-4.243-1.757s-1.757-2.651-1.757-4.243v-12.571c0-1.591 0.632-3.117 1.757-4.243s2.651-1.757 4.243-1.757h12.571c1.591 0 3.117 0.632 4.243 1.757s1.757 2.651 1.757 4.243v12.571zM24.857 8.571c0 0.283-0.084 0.559-0.241 0.794s-0.38 0.418-0.641 0.526c-0.261 0.108-0.548 0.136-0.825 0.081s-0.532-0.191-0.732-0.391c-0.2-0.2-0.336-0.454-0.391-0.731s-0.027-0.564 0.081-0.825c0.108-0.261 0.291-0.484 0.526-0.641s0.511-0.241 0.794-0.241c0.379 0 0.742 0.151 1.010 0.418s0.418 0.631 0.418 1.010z"></path>
</svg>
