<!-- Generated by IcoMoon.io -->
<svg version="1.1" xmlns="http://www.w3.org/2000/svg" width="32" height="32" viewBox="0 0 32 32">
<path fill="#011c44" d="M8.9 1.929c0.87-0.131 1.604 0.203 2.211 0.688 0.605 0.484 1.094 1.128 1.477 1.63l0.151 0.199h-0.001c0.622 0.804 1.074 1.516 1.356 2.144s0.398 1.176 0.339 1.651c-0.051 0.411-0.261 0.77-0.537 1.096s-0.622 0.624-0.956 0.913l-0.007 0.005c-0.008 0.005-0.016 0.008-0.023 0.011-0.005 0.007-0.010 0.016-0.018 0.024l-0.003 0.002-0.736 0.697-0.099 0.12-0.080 0.119c-0.121 0.208-0.278 0.601-0.347 1.046s-0.047 0.928 0.167 1.324c0.539 0.993 1.575 2.576 2.518 3.846h-0.001c0.987 1.227 2.255 2.628 3.070 3.392 0.33 0.309 0.791 0.449 1.24 0.491s0.87-0.013 1.104-0.081l0.135-0.049c0.047-0.019 0.094-0.042 0.143-0.066l0.835-0.534c0.391-0.277 0.778-0.557 1.165-0.753 0.388-0.197 0.786-0.315 1.197-0.258 0.469 0.058 0.967 0.307 1.499 0.735s1.105 1.044 1.726 1.849h0.001l0.156 0.199 0.308 0.398c0.32 0.422 0.659 0.914 0.896 1.448 0.298 0.67 0.438 1.416 0.171 2.184l-0.059 0.153c-0.261 0.629-0.637 1.159-1.175 1.663l-0.007 0.007-0.001-0.001c-0.004 0.003-0.008 0.004-0.012 0.006-0.001 0.001-0.002 0.003-0.003 0.005l-0.020 0.020-0.735 0.566c-0.023 0.030-0.059 0.076-0.107 0.109l-0.001 0.001-0.341 0.234h-0.001c-0.555 0.369-1.657 0.936-3.194 0.936-1.169 0-2.584-0.327-4.197-1.309-2.389-1.453-4.988-3.842-7.541-6.925l-0.013 0.011-0.063-0.079-1.365-1.742 0.025-0.023c-2.345-3.257-4.008-6.39-4.818-9.084-0.635-2.109-0.489-3.741-0.071-4.947 0.417-1.205 1.103-1.978 1.538-2.375 0.097-0.089 0.195-0.176 0.293-0.26l0.001-0.001c0.008-0.007 0.016-0.011 0.021-0.015 0.002-0.003 0.006-0.007 0.010-0.011s0.010-0.009 0.018-0.015l0.84-0.639c0.005-0.004 0.010-0.005 0.015-0.008l0.001-0.001c0.005-0.005 0.011-0.012 0.021-0.018 0.614-0.395 1.213-0.629 1.884-0.731zM9.072 3.101c-0.506 0.079-0.945 0.249-1.423 0.558l-0.803 0.608-0.002 0.003c-0.090 0.078-0.178 0.155-0.267 0.237h-0.001c-0.435 0.397-0.977 1.055-1.282 2.044s-0.376 2.313 0.146 4.049c0.807 2.68 2.519 5.849 4.958 9.164l0.7 0.907 0.486 0.591c2.433 2.911 4.884 5.152 7.117 6.511 1.541 0.938 2.836 1.199 3.863 1.147 1.025-0.052 1.793-0.416 2.283-0.741l1.098-0.846c0.409-0.386 0.692-0.781 0.884-1.244 0.199-0.478 0.090-0.998-0.167-1.52s-0.65-1.026-0.989-1.459l-0.16-0.205v-0.001c-1.384-1.791-2.151-2.104-2.456-2.142l-0.005-0.001c-0.076-0.013-0.171-0.001-0.285 0.036s-0.239 0.096-0.373 0.172c-0.269 0.152-0.558 0.361-0.834 0.558l-0.074 0.052-0.002-0.002-0.011 0.011-0.893 0.571-0.001-0.002c-0.009 0.006-0.017 0.009-0.023 0.012-0.006 0.005-0.014 0.014-0.024 0.020h-0.001c-0.164 0.082-0.324 0.149-0.481 0.195h-0.001c-0.294 0.085-0.68 0.145-1.099 0.145-0.78 0-1.693-0.203-2.354-0.821-0.853-0.799-2.166-2.251-3.194-3.529l-0.002-0.003c-0.984-1.323-2.056-2.962-2.62-4.002-0.334-0.616-0.393-1.317-0.316-1.953s0.291-1.217 0.514-1.599h0.001c0.087-0.148 0.193-0.29 0.315-0.431h0.001c0.008-0.009 0.015-0.016 0.021-0.020l0.001-0.002c0.003-0.004 0.008-0.009 0.013-0.015l0.003-0.003 0.773-0.733 0.007-0.004 0.008-0.008 0.071-0.062c0.253-0.218 0.519-0.448 0.727-0.669 0.103-0.11 0.19-0.217 0.254-0.316s0.101-0.19 0.11-0.266c0.038-0.306-0.072-1.129-1.454-2.915h-0.001l-0.156-0.203v-0.001c-0.335-0.44-0.722-0.952-1.163-1.334-0.386-0.334-0.8-0.558-1.243-0.555l-0.191 0.016zM12.097 9.432c-0.001 0.001-0.001 0.002-0.001 0.003s0.001-0.003 0.002-0.005l-0.001 0.002z"></path>
</svg>
